<svg width="618.501" height="87.9" viewBox="0 0 618.501 87.9" xmlns="http://www.w3.org/2000/svg"><g id="svgGroup" stroke-linecap="round" fill-rule="evenodd" font-size="9pt" stroke="#000000" stroke-width="1" fill="#000000" style="stroke:#000000;stroke-width:1;fill:#000000"><path d="M 128.101 86.4 L 85.501 86.4 A 6.622 6.622 0 0 1 83.68 86.172 Q 81.639 85.587 81.097 83.504 A 6.777 6.777 0 0 1 80.901 81.8 L 80.901 69.9 A 7.067 7.067 0 0 1 81.03 68.497 Q 81.327 67.035 82.301 66.2 L 94.401 56 L 94.401 33.7 L 85.501 33.7 A 6.622 6.622 0 0 1 83.68 33.472 Q 81.639 32.887 81.097 30.804 A 6.777 6.777 0 0 1 80.901 29.1 L 80.901 17 A 7.067 7.067 0 0 1 81.03 15.597 Q 81.327 14.135 82.301 13.3 L 95.201 2.4 A 3.559 3.559 0 0 1 96.354 1.785 Q 97.219 1.5 98.401 1.5 L 141.001 1.5 A 6.622 6.622 0 0 1 142.821 1.728 Q 144.862 2.313 145.404 4.397 A 6.777 6.777 0 0 1 145.601 6.1 L 145.601 18.2 A 7.067 7.067 0 0 1 145.471 19.603 Q 145.174 21.066 144.201 21.9 L 132.301 31.9 L 132.301 54.4 L 141.001 54.4 A 6.622 6.622 0 0 1 142.821 54.628 Q 144.862 55.213 145.404 57.297 A 6.777 6.777 0 0 1 145.601 59 L 145.601 70.9 A 7.067 7.067 0 0 1 145.471 72.303 Q 145.174 73.766 144.201 74.6 L 131.201 85.4 A 3.065 3.065 0 0 1 130.045 86.11 Q 129.563 86.282 128.968 86.352 A 7.422 7.422 0 0 1 128.101 86.4 Z M 278.101 86.4 L 235.501 86.4 A 6.622 6.622 0 0 1 233.68 86.172 Q 231.639 85.587 231.097 83.504 A 6.777 6.777 0 0 1 230.901 81.8 L 230.901 69.9 A 7.067 7.067 0 0 1 231.03 68.497 Q 231.327 67.035 232.301 66.2 L 244.401 56 L 244.401 33.7 L 235.501 33.7 A 6.622 6.622 0 0 1 233.68 33.472 Q 231.639 32.887 231.097 30.804 A 6.777 6.777 0 0 1 230.901 29.1 L 230.901 17 A 7.067 7.067 0 0 1 231.03 15.597 Q 231.327 14.135 232.301 13.3 L 245.201 2.4 A 3.559 3.559 0 0 1 246.354 1.785 Q 247.219 1.5 248.401 1.5 L 291.001 1.5 A 6.622 6.622 0 0 1 292.821 1.728 Q 294.862 2.313 295.404 4.397 A 6.777 6.777 0 0 1 295.601 6.1 L 295.601 18.2 A 7.067 7.067 0 0 1 295.471 19.603 Q 295.174 21.066 294.201 21.9 L 282.301 31.9 L 282.301 54.4 L 291.001 54.4 A 6.622 6.622 0 0 1 292.821 54.628 Q 294.862 55.213 295.404 57.297 A 6.777 6.777 0 0 1 295.601 59 L 295.601 70.9 A 7.067 7.067 0 0 1 295.471 72.303 Q 295.174 73.766 294.201 74.6 L 281.201 85.4 A 3.065 3.065 0 0 1 280.045 86.11 Q 279.563 86.282 278.968 86.352 A 7.422 7.422 0 0 1 278.101 86.4 Z M 208.501 86.4 L 157.601 86.4 A 6.622 6.622 0 0 1 155.78 86.172 Q 153.739 85.587 153.197 83.504 A 6.777 6.777 0 0 1 153.001 81.8 L 153.001 17 A 7.067 7.067 0 0 1 153.13 15.597 Q 153.427 14.135 154.401 13.3 L 167.301 2.4 A 3.559 3.559 0 0 1 168.454 1.785 Q 169.319 1.5 170.501 1.5 L 186.001 1.5 A 6.622 6.622 0 0 1 187.821 1.728 Q 189.862 2.313 190.404 4.397 A 6.777 6.777 0 0 1 190.601 6.1 L 190.601 46.8 L 190.801 46.6 L 203.701 35.7 A 3.559 3.559 0 0 1 204.854 35.085 Q 205.719 34.8 206.901 34.8 L 221.401 34.8 A 6.622 6.622 0 0 1 223.221 35.028 Q 225.262 35.613 225.804 37.697 A 6.777 6.777 0 0 1 226.001 39.4 L 226.001 70.9 A 7.067 7.067 0 0 1 225.871 72.303 Q 225.574 73.766 224.601 74.6 L 211.601 85.4 A 3.065 3.065 0 0 1 210.445 86.11 Q 209.963 86.282 209.368 86.352 A 7.422 7.422 0 0 1 208.501 86.4 Z M 601.001 86.4 L 550.101 86.4 A 6.622 6.622 0 0 1 548.28 86.172 Q 546.239 85.587 545.697 83.504 A 6.777 6.777 0 0 1 545.501 81.8 L 545.501 17 A 7.067 7.067 0 0 1 545.63 15.597 Q 545.927 14.135 546.901 13.3 L 559.801 2.4 A 3.559 3.559 0 0 1 560.954 1.785 Q 561.819 1.5 563.001 1.5 L 578.501 1.5 A 6.622 6.622 0 0 1 580.321 1.728 Q 582.362 2.313 582.904 4.397 A 6.777 6.777 0 0 1 583.101 6.1 L 583.101 46.8 L 583.301 46.6 L 596.201 35.7 A 3.559 3.559 0 0 1 597.354 35.085 Q 598.219 34.8 599.401 34.8 L 613.901 34.8 A 6.622 6.622 0 0 1 615.721 35.028 Q 617.762 35.613 618.304 37.697 A 6.777 6.777 0 0 1 618.501 39.4 L 618.501 70.9 A 7.067 7.067 0 0 1 618.371 72.303 Q 618.074 73.766 617.101 74.6 L 604.101 85.4 A 3.065 3.065 0 0 1 602.945 86.11 Q 602.463 86.282 601.868 86.352 A 7.422 7.422 0 0 1 601.001 86.4 Z M 170.501 74.5 L 221.401 74.5 A 5.183 5.183 0 0 0 222.825 74.322 Q 224.423 73.864 224.847 72.233 A 5.304 5.304 0 0 0 225.001 70.9 L 225.001 39.4 A 5.183 5.183 0 0 0 224.822 37.976 Q 224.364 36.378 222.734 35.954 A 5.304 5.304 0 0 0 221.401 35.8 L 206.901 35.8 A 5.183 5.183 0 0 0 205.476 35.979 Q 203.878 36.436 203.454 38.067 A 5.304 5.304 0 0 0 203.301 39.4 L 203.301 55.6 L 189.601 55.6 L 189.601 6.1 A 5.183 5.183 0 0 0 189.422 4.676 Q 188.964 3.078 187.334 2.654 A 5.304 5.304 0 0 0 186.001 2.5 L 170.501 2.5 A 5.183 5.183 0 0 0 169.076 2.679 Q 167.478 3.136 167.054 4.767 A 5.304 5.304 0 0 0 166.901 6.1 L 166.901 70.9 A 5.183 5.183 0 0 0 167.079 72.325 Q 167.537 73.922 169.167 74.347 A 5.304 5.304 0 0 0 170.501 74.5 Z M 563.001 74.5 L 613.901 74.5 A 5.183 5.183 0 0 0 615.325 74.322 Q 616.923 73.864 617.347 72.233 A 5.304 5.304 0 0 0 617.501 70.9 L 617.501 39.4 A 5.183 5.183 0 0 0 617.322 37.976 Q 616.864 36.378 615.234 35.954 A 5.304 5.304 0 0 0 613.901 35.8 L 599.401 35.8 A 5.183 5.183 0 0 0 597.976 35.979 Q 596.378 36.436 595.954 38.067 A 5.304 5.304 0 0 0 595.801 39.4 L 595.801 55.6 L 582.101 55.6 L 582.101 6.1 A 5.183 5.183 0 0 0 581.922 4.676 Q 581.464 3.078 579.834 2.654 A 5.304 5.304 0 0 0 578.501 2.5 L 563.001 2.5 A 5.183 5.183 0 0 0 561.576 2.679 Q 559.978 3.136 559.554 4.767 A 5.304 5.304 0 0 0 559.401 6.1 L 559.401 70.9 A 5.183 5.183 0 0 0 559.579 72.325 Q 560.037 73.922 561.667 74.347 A 5.304 5.304 0 0 0 563.001 74.5 Z M 43.001 86.4 L 4.601 86.4 A 6.622 6.622 0 0 1 2.78 86.172 Q 0.739 85.587 0.197 83.504 A 6.777 6.777 0 0 1 0.001 81.8 L 0.001 17 A 7.067 7.067 0 0 1 0.13 15.597 Q 0.427 14.135 1.401 13.3 L 14.301 2.4 A 3.559 3.559 0 0 1 15.454 1.785 Q 16.319 1.5 17.501 1.5 L 49.401 1.5 A 43.73 43.73 0 0 1 54.86 1.817 Q 60.787 2.565 64.215 5.083 A 12.125 12.125 0 0 1 64.751 5.5 A 12.626 12.626 0 0 1 68.831 11.869 Q 69.601 14.493 69.601 17.8 L 69.601 22.6 A 20.275 20.275 0 0 1 69.3 26.221 Q 68.941 28.192 68.155 29.713 A 8.731 8.731 0 0 1 65.801 32.6 L 65.501 32.8 Q 71.001 34 73.651 37.9 A 13.477 13.477 0 0 1 75.366 41.597 Q 75.892 43.334 76.122 45.427 A 31.869 31.869 0 0 1 76.301 48.9 L 76.301 58.1 Q 76.301 64.5 73.611 68.522 A 12.872 12.872 0 0 1 71.101 71.3 L 58.201 82.2 Q 54.705 85.196 48.462 86.055 A 40.191 40.191 0 0 1 43.001 86.4 Z M 338.001 86.4 L 321.801 86.4 A 6.622 6.622 0 0 1 319.98 86.172 Q 317.939 85.587 317.397 83.504 A 6.777 6.777 0 0 1 317.201 81.8 L 317.201 33.7 L 303.501 33.7 A 6.622 6.622 0 0 1 301.68 33.472 Q 299.639 32.887 299.097 30.804 A 6.777 6.777 0 0 1 298.901 29.1 L 298.901 17 A 7.067 7.067 0 0 1 299.03 15.597 Q 299.327 14.135 300.301 13.3 L 313.201 2.4 A 3.559 3.559 0 0 1 314.354 1.785 Q 315.219 1.5 316.401 1.5 L 369.201 1.5 A 6.622 6.622 0 0 1 371.021 1.728 Q 373.062 2.313 373.604 4.397 A 6.777 6.777 0 0 1 373.801 6.1 L 373.801 18.2 A 7.067 7.067 0 0 1 373.671 19.603 Q 373.374 21.066 372.401 21.9 L 359.401 32.7 A 3.065 3.065 0 0 1 358.245 33.41 Q 357.763 33.582 357.168 33.652 A 7.422 7.422 0 0 1 356.301 33.7 L 355.501 33.7 L 355.501 70.9 A 7.067 7.067 0 0 1 355.371 72.303 Q 355.074 73.766 354.101 74.6 L 341.101 85.4 A 3.065 3.065 0 0 1 339.945 86.11 Q 339.463 86.282 338.868 86.352 A 7.422 7.422 0 0 1 338.001 86.4 Z M 98.401 74.5 L 141.001 74.5 A 5.183 5.183 0 0 0 142.425 74.322 Q 144.023 73.864 144.447 72.233 A 5.304 5.304 0 0 0 144.601 70.9 L 144.601 59 A 5.183 5.183 0 0 0 144.422 57.576 Q 143.964 55.978 142.334 55.554 A 5.304 5.304 0 0 0 141.001 55.4 L 131.301 55.4 L 131.301 21.8 L 141.001 21.8 A 5.183 5.183 0 0 0 142.425 21.622 Q 144.023 21.164 144.447 19.533 A 5.304 5.304 0 0 0 144.601 18.2 L 144.601 6.1 A 5.183 5.183 0 0 0 144.422 4.676 Q 143.964 3.078 142.334 2.654 A 5.304 5.304 0 0 0 141.001 2.5 L 98.401 2.5 A 5.183 5.183 0 0 0 96.976 2.679 Q 95.378 3.136 94.954 4.767 A 5.304 5.304 0 0 0 94.801 6.1 L 94.801 18.2 A 5.183 5.183 0 0 0 94.979 19.625 Q 95.437 21.222 97.067 21.647 A 5.304 5.304 0 0 0 98.401 21.8 L 108.301 21.8 L 108.301 55.4 L 98.401 55.4 A 5.183 5.183 0 0 0 96.976 55.579 Q 95.378 56.036 94.954 57.667 A 5.304 5.304 0 0 0 94.801 59 L 94.801 70.9 A 5.183 5.183 0 0 0 94.979 72.325 Q 95.437 73.922 97.067 74.347 A 5.304 5.304 0 0 0 98.401 74.5 Z M 248.401 74.5 L 291.001 74.5 A 5.183 5.183 0 0 0 292.425 74.322 Q 294.023 73.864 294.447 72.233 A 5.304 5.304 0 0 0 294.601 70.9 L 294.601 59 A 5.183 5.183 0 0 0 294.422 57.576 Q 293.964 55.978 292.334 55.554 A 5.304 5.304 0 0 0 291.001 55.4 L 281.301 55.4 L 281.301 21.8 L 291.001 21.8 A 5.183 5.183 0 0 0 292.425 21.622 Q 294.023 21.164 294.447 19.533 A 5.304 5.304 0 0 0 294.601 18.2 L 294.601 6.1 A 5.183 5.183 0 0 0 294.422 4.676 Q 293.964 3.078 292.334 2.654 A 5.304 5.304 0 0 0 291.001 2.5 L 248.401 2.5 A 5.183 5.183 0 0 0 246.976 2.679 Q 245.378 3.136 244.954 4.767 A 5.304 5.304 0 0 0 244.801 6.1 L 244.801 18.2 A 5.183 5.183 0 0 0 244.979 19.625 Q 245.437 21.222 247.067 21.647 A 5.304 5.304 0 0 0 248.401 21.8 L 258.301 21.8 L 258.301 55.4 L 248.401 55.4 A 5.183 5.183 0 0 0 246.976 55.579 Q 245.378 56.036 244.954 57.667 A 5.304 5.304 0 0 0 244.801 59 L 244.801 70.9 A 5.183 5.183 0 0 0 244.979 72.325 Q 245.437 73.922 247.067 74.347 A 5.304 5.304 0 0 0 248.401 74.5 Z M 448.001 70.8 L 435.101 81.6 A 18.253 18.253 0 0 1 431.585 83.929 Q 428.915 85.309 425.351 86.25 A 42.521 42.521 0 0 1 420.374 87.223 Q 415.507 87.9 409.101 87.9 A 79.534 79.534 0 0 1 402.777 87.664 Q 397.135 87.213 393.001 85.9 A 32.45 32.45 0 0 1 388.669 84.196 Q 385.388 82.606 383.201 80.45 A 19.119 19.119 0 0 1 379.295 75.032 A 17.851 17.851 0 0 1 378.351 72.6 Q 377.001 68.2 377.001 63.5 L 377.001 32.4 A 29.564 29.564 0 0 1 377.435 27.233 A 24.212 24.212 0 0 1 378.301 23.8 A 14.38 14.38 0 0 1 382.482 17.544 A 17.344 17.344 0 0 1 383.001 17.1 L 396.001 6.3 A 18.253 18.253 0 0 1 399.516 3.971 Q 402.186 2.591 405.751 1.65 A 42.521 42.521 0 0 1 410.727 0.677 Q 415.594 0 422.001 0 A 102.521 102.521 0 0 1 428.324 0.183 Q 431.41 0.375 434.044 0.765 A 44.115 44.115 0 0 1 438.101 1.55 A 34.733 34.733 0 0 1 442.095 2.775 Q 445.586 4.097 447.851 6 A 16.132 16.132 0 0 1 451.334 10.021 A 14.636 14.636 0 0 1 452.651 12.85 A 25.241 25.241 0 0 1 453.888 18.846 A 30.607 30.607 0 0 1 454.001 21.5 L 454.001 55.6 A 28.427 28.427 0 0 1 453.542 60.798 A 23.66 23.66 0 0 1 452.701 64.05 Q 451.401 67.9 448.001 70.8 Z M 531.701 70.8 L 518.801 81.6 A 18.253 18.253 0 0 1 515.285 83.929 Q 512.615 85.309 509.051 86.25 A 42.521 42.521 0 0 1 504.074 87.223 Q 499.207 87.9 492.801 87.9 A 79.534 79.534 0 0 1 486.477 87.664 Q 480.835 87.213 476.701 85.9 A 32.45 32.45 0 0 1 472.369 84.196 Q 469.088 82.606 466.901 80.45 A 19.119 19.119 0 0 1 462.995 75.032 A 17.851 17.851 0 0 1 462.051 72.6 Q 460.701 68.2 460.701 63.5 L 460.701 32.4 A 29.564 29.564 0 0 1 461.135 27.233 A 24.212 24.212 0 0 1 462.001 23.8 A 14.38 14.38 0 0 1 466.182 17.544 A 17.344 17.344 0 0 1 466.701 17.1 L 479.701 6.3 A 18.253 18.253 0 0 1 483.216 3.971 Q 485.886 2.591 489.451 1.65 A 42.521 42.521 0 0 1 494.427 0.677 Q 499.294 0 505.701 0 A 102.521 102.521 0 0 1 512.024 0.183 Q 515.11 0.375 517.744 0.765 A 44.115 44.115 0 0 1 521.801 1.55 A 34.733 34.733 0 0 1 525.795 2.775 Q 529.286 4.097 531.551 6 A 16.132 16.132 0 0 1 535.034 10.021 A 14.636 14.636 0 0 1 536.351 12.85 A 25.241 25.241 0 0 1 537.588 18.846 A 30.607 30.607 0 0 1 537.701 21.5 L 537.701 55.6 A 28.427 28.427 0 0 1 537.242 60.798 A 23.66 23.66 0 0 1 536.401 64.05 Q 535.101 67.9 531.701 70.8 Z M 334.701 74.5 L 350.901 74.5 A 5.183 5.183 0 0 0 352.325 74.322 Q 353.923 73.864 354.347 72.233 A 5.304 5.304 0 0 0 354.501 70.9 L 354.501 21.8 L 369.201 21.8 A 5.183 5.183 0 0 0 370.625 21.622 Q 372.223 21.164 372.647 19.533 A 5.304 5.304 0 0 0 372.801 18.2 L 372.801 6.1 A 5.183 5.183 0 0 0 372.622 4.676 Q 372.164 3.078 370.534 2.654 A 5.304 5.304 0 0 0 369.201 2.5 L 316.401 2.5 A 5.183 5.183 0 0 0 314.976 2.679 Q 313.378 3.136 312.954 4.767 A 5.304 5.304 0 0 0 312.801 6.1 L 312.801 18.2 A 5.183 5.183 0 0 0 312.979 19.625 Q 313.437 21.222 315.067 21.647 A 5.304 5.304 0 0 0 316.401 21.8 L 331.101 21.8 L 331.101 70.9 A 5.183 5.183 0 0 0 331.279 72.325 Q 331.737 73.922 333.367 74.347 A 5.304 5.304 0 0 0 334.701 74.5 Z M 17.501 74.5 L 55.901 74.5 Q 65.644 74.5 70.356 70.703 A 11.864 11.864 0 0 0 70.601 70.5 A 12.506 12.506 0 0 0 74.401 64.608 Q 75.301 61.775 75.301 58.1 L 75.301 48.9 Q 75.301 44.264 74.104 41.061 A 11.674 11.674 0 0 0 72.251 37.75 A 10.785 10.785 0 0 0 67.883 34.591 Q 65.646 33.672 62.701 33.4 A 9.073 9.073 0 0 0 68.108 26.914 Q 68.554 25.179 68.596 23.046 A 22.699 22.699 0 0 0 68.601 22.6 L 68.601 17.8 A 20.942 20.942 0 0 0 68.164 13.376 Q 67.581 10.679 66.217 8.679 A 11.084 11.084 0 0 0 63.901 6.2 A 14.573 14.573 0 0 0 59.658 3.945 Q 55.784 2.591 50.158 2.506 A 50.348 50.348 0 0 0 49.401 2.5 L 17.501 2.5 A 5.183 5.183 0 0 0 16.076 2.679 Q 14.478 3.136 14.054 4.767 A 5.304 5.304 0 0 0 13.901 6.1 L 13.901 70.9 A 5.183 5.183 0 0 0 14.079 72.325 Q 14.537 73.922 16.167 74.347 A 5.304 5.304 0 0 0 17.501 74.5 Z M 453.001 55.6 L 453.001 21.5 Q 453.001 16.9 451.651 13.15 Q 450.301 9.4 446.901 6.7 A 17.828 17.828 0 0 0 443.701 4.704 Q 442.039 3.883 440.013 3.228 A 38.108 38.108 0 0 0 437.451 2.5 A 44.103 44.103 0 0 0 432.556 1.601 Q 427.949 1 422.001 1 A 97.51 97.51 0 0 0 415.934 1.177 Q 412.974 1.362 410.445 1.741 A 42.094 42.094 0 0 0 406.551 2.5 Q 402.175 3.585 399.186 5.297 A 16.67 16.67 0 0 0 397.101 6.7 A 15.601 15.601 0 0 0 393.708 10.368 A 14.01 14.01 0 0 0 392.301 13.15 A 22.068 22.068 0 0 0 391.066 18.438 A 27.574 27.574 0 0 0 390.901 21.5 L 390.901 55.6 A 26.128 26.128 0 0 0 391.34 60.49 A 21.213 21.213 0 0 0 392.301 63.95 A 14.486 14.486 0 0 0 396.282 69.709 A 17.565 17.565 0 0 0 397.101 70.4 A 17.504 17.504 0 0 0 400.3 72.388 Q 401.962 73.201 403.988 73.843 A 37.315 37.315 0 0 0 406.551 74.55 A 45.474 45.474 0 0 0 411.445 75.42 Q 414.037 75.746 417.052 75.889 A 104.738 104.738 0 0 0 422.001 76 A 100.863 100.863 0 0 0 428.067 75.829 Q 433.48 75.502 437.451 74.55 A 34.867 34.867 0 0 0 441.297 73.406 Q 444.669 72.172 446.901 70.4 A 15.325 15.325 0 0 0 450.181 66.876 A 13.62 13.62 0 0 0 451.651 63.95 A 22.736 22.736 0 0 0 452.837 58.696 A 28.556 28.556 0 0 0 453.001 55.6 Z M 536.701 55.6 L 536.701 21.5 Q 536.701 16.9 535.351 13.15 Q 534.001 9.4 530.601 6.7 A 17.828 17.828 0 0 0 527.401 4.704 Q 525.739 3.883 523.713 3.228 A 38.108 38.108 0 0 0 521.151 2.5 A 44.103 44.103 0 0 0 516.256 1.601 Q 511.649 1 505.701 1 A 97.51 97.51 0 0 0 499.634 1.177 Q 496.674 1.362 494.145 1.741 A 42.094 42.094 0 0 0 490.251 2.5 Q 485.875 3.585 482.886 5.297 A 16.67 16.67 0 0 0 480.801 6.7 A 15.601 15.601 0 0 0 477.408 10.368 A 14.01 14.01 0 0 0 476.001 13.15 A 22.068 22.068 0 0 0 474.766 18.438 A 27.574 27.574 0 0 0 474.601 21.5 L 474.601 55.6 A 26.128 26.128 0 0 0 475.04 60.49 A 21.213 21.213 0 0 0 476.001 63.95 A 14.486 14.486 0 0 0 479.982 69.709 A 17.565 17.565 0 0 0 480.801 70.4 A 17.504 17.504 0 0 0 484 72.388 Q 485.662 73.201 487.688 73.843 A 37.315 37.315 0 0 0 490.251 74.55 A 45.474 45.474 0 0 0 495.145 75.42 Q 497.737 75.746 500.752 75.889 A 104.738 104.738 0 0 0 505.701 76 A 100.863 100.863 0 0 0 511.767 75.829 Q 517.18 75.502 521.151 74.55 A 34.867 34.867 0 0 0 524.997 73.406 Q 528.369 72.172 530.601 70.4 A 15.325 15.325 0 0 0 533.881 66.876 A 13.62 13.62 0 0 0 535.351 63.95 A 22.736 22.736 0 0 0 536.537 58.696 A 28.556 28.556 0 0 0 536.701 55.6 Z M 103.801 12.5 L 103.801 11.5 L 135.601 11.5 L 135.601 12.5 L 120.301 12.5 L 120.301 64.5 L 135.601 64.5 L 135.601 65.5 L 103.801 65.5 L 103.801 64.5 L 119.301 64.5 L 119.301 12.5 L 103.801 12.5 Z M 253.801 12.5 L 253.801 11.5 L 285.601 11.5 L 285.601 12.5 L 270.301 12.5 L 270.301 64.5 L 285.601 64.5 L 285.601 65.5 L 253.801 65.5 L 253.801 64.5 L 269.301 64.5 L 269.301 12.5 L 253.801 12.5 Z M 213.601 44.8 L 214.601 44.8 L 214.601 65.5 L 177.801 65.5 L 177.801 11.5 L 178.801 11.5 L 178.801 64.5 L 213.601 64.5 L 213.601 44.8 Z M 606.101 44.8 L 607.101 44.8 L 607.101 65.5 L 570.301 65.5 L 570.301 11.5 L 571.301 11.5 L 571.301 64.5 L 606.101 64.5 L 606.101 44.8 Z M 343.301 65.5 L 342.301 65.5 L 342.301 12.5 L 321.801 12.5 L 321.801 11.5 L 363.801 11.5 L 363.801 12.5 L 343.301 12.5 L 343.301 65.5 Z M 25.001 65.5 L 25.001 11.5 L 45.301 11.5 A 34.805 34.805 0 0 1 48.229 11.615 Q 51.159 11.863 53.05 12.649 A 8.506 8.506 0 0 1 53.701 12.95 Q 56.501 14.4 57.451 16.8 A 13.58 13.58 0 0 1 58.325 20.508 A 16.511 16.511 0 0 1 58.401 22.1 L 58.401 28.5 A 14.941 14.941 0 0 1 57.99 32.055 A 12.945 12.945 0 0 1 57.351 34 A 4.711 4.711 0 0 1 55.819 35.912 Q 54.482 36.938 52.189 37.551 A 17.846 17.846 0 0 1 52.001 37.6 A 33.514 33.514 0 0 1 54.925 37.719 Q 58.374 38.022 60.351 39.1 A 8.835 8.835 0 0 1 62.397 40.608 A 7.071 7.071 0 0 1 64.051 43.2 A 15.362 15.362 0 0 1 64.841 46.511 A 20.19 20.19 0 0 1 65.001 49.1 L 65.001 55.5 A 15.192 15.192 0 0 1 64.74 58.372 A 12.036 12.036 0 0 1 64.051 60.7 Q 63.101 63 60.301 64.25 A 11.273 11.273 0 0 1 58.277 64.909 Q 56.119 65.414 52.997 65.488 A 46.496 46.496 0 0 1 51.901 65.5 L 25.001 65.5 Z M 401.701 53.3 L 401.701 23.8 A 16.142 16.142 0 0 1 402.079 20.226 A 12.382 12.382 0 0 1 403.451 16.7 Q 404.954 14.122 408.415 12.504 A 18.777 18.777 0 0 1 409.601 12 A 20.932 20.932 0 0 1 413.016 11.034 Q 416.558 10.323 421.477 10.301 A 70.613 70.613 0 0 1 421.801 10.3 A 59.348 59.348 0 0 1 426.37 10.464 Q 430.695 10.799 433.61 11.82 A 16.366 16.366 0 0 1 434.101 12 A 16.772 16.772 0 0 1 436.818 13.323 Q 438.292 14.225 439.307 15.357 A 8.779 8.779 0 0 1 440.301 16.7 A 12.496 12.496 0 0 1 441.907 21.228 A 16.476 16.476 0 0 1 442.101 23.8 L 442.101 53.3 A 15.1 15.1 0 0 1 441.622 57.173 A 12.512 12.512 0 0 1 440.301 60.35 Q 438.715 63.037 435.112 64.676 A 18.833 18.833 0 0 1 434.101 65.1 A 20.744 20.744 0 0 1 430.749 66.051 Q 427.292 66.75 422.49 66.797 A 71.291 71.291 0 0 1 421.801 66.8 A 57.989 57.989 0 0 1 417.258 66.634 Q 412.789 66.282 409.816 65.182 A 16.146 16.146 0 0 1 409.601 65.1 Q 406.216 63.792 404.399 61.686 A 8.586 8.586 0 0 1 403.451 60.35 Q 401.701 57.3 401.701 53.3 Z M 485.401 53.3 L 485.401 23.8 A 16.142 16.142 0 0 1 485.779 20.226 A 12.382 12.382 0 0 1 487.151 16.7 Q 488.654 14.122 492.115 12.504 A 18.777 18.777 0 0 1 493.301 12 A 20.932 20.932 0 0 1 496.716 11.034 Q 500.258 10.323 505.177 10.301 A 70.613 70.613 0 0 1 505.501 10.3 A 59.348 59.348 0 0 1 510.07 10.464 Q 514.395 10.799 517.31 11.82 A 16.366 16.366 0 0 1 517.801 12 A 16.772 16.772 0 0 1 520.518 13.323 Q 521.992 14.225 523.007 15.357 A 8.779 8.779 0 0 1 524.001 16.7 A 12.496 12.496 0 0 1 525.607 21.228 A 16.476 16.476 0 0 1 525.801 23.8 L 525.801 53.3 A 15.1 15.1 0 0 1 525.322 57.173 A 12.512 12.512 0 0 1 524.001 60.35 Q 522.415 63.037 518.812 64.676 A 18.833 18.833 0 0 1 517.801 65.1 A 20.744 20.744 0 0 1 514.449 66.051 Q 510.992 66.75 506.19 66.797 A 71.291 71.291 0 0 1 505.501 66.8 A 57.989 57.989 0 0 1 500.958 66.634 Q 496.489 66.282 493.516 65.182 A 16.146 16.146 0 0 1 493.301 65.1 Q 489.916 63.792 488.099 61.686 A 8.586 8.586 0 0 1 487.151 60.35 Q 485.401 57.3 485.401 53.3 Z M 441.101 53.3 L 441.101 23.8 A 14.338 14.338 0 0 0 440.727 20.457 A 11.296 11.296 0 0 0 439.401 17.2 Q 437.966 14.838 434.752 13.365 A 17.8 17.8 0 0 0 433.501 12.85 A 20.553 20.553 0 0 0 430.306 11.984 Q 427.015 11.346 422.456 11.303 A 70.493 70.493 0 0 0 421.801 11.3 Q 414.401 11.3 410.201 12.85 Q 406.001 14.4 404.351 17.2 A 11.794 11.794 0 0 0 402.878 21.414 A 15.477 15.477 0 0 0 402.701 23.8 L 402.701 53.3 A 14.12 14.12 0 0 0 403.166 56.992 A 11.829 11.829 0 0 0 404.351 59.85 A 8.508 8.508 0 0 0 406.684 62.409 Q 407.726 63.184 409.087 63.796 A 17.43 17.43 0 0 0 410.201 64.25 A 20.727 20.727 0 0 0 413.445 65.129 Q 416.819 65.779 421.493 65.8 A 69.707 69.707 0 0 0 421.801 65.8 A 58.685 58.685 0 0 0 426.159 65.649 Q 430.259 65.343 433.034 64.414 A 16.175 16.175 0 0 0 433.501 64.25 A 15.53 15.53 0 0 0 436.08 63.039 Q 437.456 62.218 438.409 61.178 A 8.124 8.124 0 0 0 439.401 59.85 A 12.056 12.056 0 0 0 441.019 54.878 A 14.99 14.99 0 0 0 441.101 53.3 Z M 524.801 53.3 L 524.801 23.8 A 14.338 14.338 0 0 0 524.427 20.457 A 11.296 11.296 0 0 0 523.101 17.2 Q 521.666 14.838 518.452 13.365 A 17.8 17.8 0 0 0 517.201 12.85 A 20.553 20.553 0 0 0 514.006 11.984 Q 510.715 11.346 506.156 11.303 A 70.493 70.493 0 0 0 505.501 11.3 Q 498.101 11.3 493.901 12.85 Q 489.701 14.4 488.051 17.2 A 11.794 11.794 0 0 0 486.578 21.414 A 15.477 15.477 0 0 0 486.401 23.8 L 486.401 53.3 A 14.12 14.12 0 0 0 486.866 56.992 A 11.829 11.829 0 0 0 488.051 59.85 A 8.508 8.508 0 0 0 490.384 62.409 Q 491.426 63.184 492.787 63.796 A 17.43 17.43 0 0 0 493.901 64.25 A 20.727 20.727 0 0 0 497.145 65.129 Q 500.519 65.779 505.193 65.8 A 69.707 69.707 0 0 0 505.501 65.8 A 58.685 58.685 0 0 0 509.859 65.649 Q 513.959 65.343 516.734 64.414 A 16.175 16.175 0 0 0 517.201 64.25 A 15.53 15.53 0 0 0 519.78 63.039 Q 521.156 62.218 522.109 61.178 A 8.124 8.124 0 0 0 523.101 59.85 A 12.056 12.056 0 0 0 524.719 54.878 A 14.99 14.99 0 0 0 524.801 53.3 Z M 52.001 38.6 L 26.001 38.6 L 26.001 64.5 L 51.901 64.5 Q 56.334 64.5 58.88 63.635 A 9.111 9.111 0 0 0 59.501 63.4 A 8.515 8.515 0 0 0 61.156 62.487 Q 62.311 61.657 62.92 60.513 A 5.352 5.352 0 0 0 63.051 60.25 A 10.038 10.038 0 0 0 63.844 57.587 A 13.33 13.33 0 0 0 64.001 55.5 L 64.001 49.1 Q 64.001 46.1 63.101 43.75 Q 62.201 41.4 59.651 40 A 9.109 9.109 0 0 0 57.703 39.232 Q 55.747 38.689 52.941 38.613 A 34.592 34.592 0 0 0 52.001 38.6 Z M 26.001 37.6 L 45.301 37.6 Q 49.922 37.6 52.461 36.682 A 7.794 7.794 0 0 0 53.351 36.3 Q 55.345 35.283 56.238 33.808 A 4.91 4.91 0 0 0 56.651 32.95 A 12.446 12.446 0 0 0 57.365 29.533 A 14.667 14.667 0 0 0 57.401 28.5 L 57.401 22.1 A 14.032 14.032 0 0 0 57.116 19.221 A 11.602 11.602 0 0 0 56.501 17.2 A 6.029 6.029 0 0 0 54.532 14.679 A 8.704 8.704 0 0 0 53.001 13.75 A 10.006 10.006 0 0 0 51.131 13.091 Q 49.134 12.583 46.263 12.512 A 38.732 38.732 0 0 0 45.301 12.5 L 26.001 12.5 L 26.001 37.6 Z M 413.601 52 L 413.601 25.1 A 4.342 4.342 0 0 1 413.999 23.224 A 4.32 4.32 0 0 1 415.101 21.8 A 3.499 3.499 0 0 1 416.153 21.209 Q 418.014 20.5 422.001 20.5 A 36.169 36.169 0 0 1 424.211 20.562 Q 427.409 20.759 428.662 21.58 A 2.408 2.408 0 0 1 428.951 21.8 A 4.207 4.207 0 0 1 430.395 24.853 A 5.343 5.343 0 0 1 430.401 25.1 L 430.401 52 Q 430.401 54 428.951 55.35 A 3.291 3.291 0 0 1 427.914 55.964 Q 426.061 56.7 422.001 56.7 A 33.743 33.743 0 0 1 419.825 56.636 Q 416.651 56.429 415.378 55.566 A 2.567 2.567 0 0 1 415.101 55.35 A 4.471 4.471 0 0 1 413.919 53.706 A 4.486 4.486 0 0 1 413.601 52 Z M 497.301 52 L 497.301 25.1 A 4.342 4.342 0 0 1 497.699 23.224 A 4.32 4.32 0 0 1 498.801 21.8 A 3.499 3.499 0 0 1 499.853 21.209 Q 501.714 20.5 505.701 20.5 A 36.169 36.169 0 0 1 507.911 20.562 Q 511.109 20.759 512.362 21.58 A 2.408 2.408 0 0 1 512.651 21.8 A 4.207 4.207 0 0 1 514.095 24.853 A 5.343 5.343 0 0 1 514.101 25.1 L 514.101 52 Q 514.101 54 512.651 55.35 A 3.291 3.291 0 0 1 511.614 55.964 Q 509.761 56.7 505.701 56.7 A 33.743 33.743 0 0 1 503.525 56.636 Q 500.351 56.429 499.078 55.566 A 2.567 2.567 0 0 1 498.801 55.35 A 4.471 4.471 0 0 1 497.619 53.706 A 4.486 4.486 0 0 1 497.301 52 Z M 36.401 57.5 L 36.401 45.7 L 49.401 45.7 Q 52.43 45.7 53.044 48.179 A 5.922 5.922 0 0 1 53.201 49.6 L 53.201 53.5 A 6.081 6.081 0 0 1 53.019 55.057 Q 52.491 57.046 50.424 57.416 A 5.821 5.821 0 0 1 49.401 57.5 L 36.401 57.5 Z M 414.601 33.1 L 414.601 52 A 4.243 4.243 0 0 0 414.688 52.883 A 3.281 3.281 0 0 0 415.001 53.75 A 2.282 2.282 0 0 0 415.518 54.388 Q 415.908 54.731 416.501 55 L 416.501 36 A 4.243 4.243 0 0 0 416.413 35.118 A 3.281 3.281 0 0 0 416.101 34.25 Q 415.701 33.5 414.601 33.1 Z M 498.301 33.1 L 498.301 52 A 4.243 4.243 0 0 0 498.388 52.883 A 3.281 3.281 0 0 0 498.701 53.75 A 2.282 2.282 0 0 0 499.218 54.388 Q 499.608 54.731 500.201 55 L 500.201 36 A 4.243 4.243 0 0 0 500.113 35.118 A 3.281 3.281 0 0 0 499.801 34.25 Q 499.401 33.5 498.301 33.1 Z M 36.401 30.3 L 36.401 19.5 L 44.901 19.5 A 5.185 5.185 0 0 1 46.427 19.706 Q 48.701 20.406 48.701 23.5 L 48.701 26.3 A 6.081 6.081 0 0 1 48.519 27.857 Q 47.991 29.846 45.924 30.216 A 5.821 5.821 0 0 1 44.901 30.3 L 36.401 30.3 Z" vector-effect="non-scaling-stroke"/></g></svg>